<?xml version="1.0" encoding="UTF-8" standalone="no" ?>
<!DOCTYPE svg PUBLIC "-//W3C//DTD SVG 1.1//EN" "http://www.w3.org/Graphics/SVG/1.1/DTD/svg11.dtd">
<svg xmlns="http://www.w3.org/2000/svg" xmlns:xlink="http://www.w3.org/1999/xlink" version="1.1" width="400" height="400" viewBox="0 0 400 400" xml:space="preserve">
<desc>Created with Fabric.js 3.6.2</desc>
<defs>
</defs>
<g transform="matrix(8.33 0 0 8.33 205.42 198.85)" id="Layer_1"  >
<path style="stroke: none; stroke-width: 1; stroke-dasharray: none; stroke-linecap: butt; stroke-dashoffset: 0; stroke-linejoin: miter; stroke-miterlimit: 4; fill: rgb(0,0,0); fill-rule: nonzero; opacity: 1;"  transform=" translate(-12.65, -11.86)" d="M 14.8 12.3 l -4.1 2.2 c -0.1 0 -0.2 0.1 -0.2 0.1 c -0.1 0 -0.2 0 -0.2 -0.1 c -0.1 -0.1 -0.2 -0.2 -0.2 -0.4 l 0 -4.5 c 0 -0.2 0.1 -0.3 0.2 -0.4 c 0.1 -0.1 0.3 -0.1 0.5 0 l 4.1 2.3 c 0.2 0.1 0.3 0.2 0.3 0.4 C 15 12 14.9 12.2 14.8 12.3 z" stroke-linecap="round" />
</g>
<g transform="matrix(8.33 0 0 8.33 200 200)" id="Layer_1"  >
<path style="stroke: none; stroke-width: 1; stroke-dasharray: none; stroke-linecap: butt; stroke-dashoffset: 0; stroke-linejoin: miter; stroke-miterlimit: 4; fill: rgb(0,0,0); fill-rule: nonzero; opacity: 1;"  transform=" translate(-12, -12)" d="M 19.7 0.5 H 4.3 c -2.1 0 -3.8 1.7 -3.8 3.8 v 15.4 c 0 2.1 1.7 3.8 3.8 3.8 h 15.4 c 2.1 0 3.8 -1.7 3.8 -3.8 V 4.3 C 23.5 2.2 21.8 0.5 19.7 0.5 z M 20.1 12.6 c 0 1.3 -0.2 2.6 -0.2 2.6 c 0 0.1 -0.2 1.3 -0.7 1.9 c -0.6 0.7 -1.4 0.8 -1.7 0.8 c 0 0 -0.1 0 -0.1 0 c -2.1 0.2 -5.4 0.2 -5.4 0.2 c 0 0 0 0 0 0 c -0.2 0 -4 0 -5.2 -0.2 c -0.1 0 -0.1 0 -0.2 0 c -0.4 -0.1 -1.2 -0.1 -1.8 -0.8 C 4.2 16.5 4 15.4 4 15.3 c 0 -0.1 -0.2 -1.3 -0.2 -2.7 v -1.2 C 3.9 10.1 4 8.8 4 8.8 c 0 -0.1 0.2 -1.3 0.7 -1.9 c 0.6 -0.7 1.4 -0.8 1.7 -0.8 c 0 0 0.1 0 0.1 0 C 8.7 5.9 12 5.9 12 5.9 c 0 0 3.3 0 5.4 0.2 c 0 0 0.1 0 0.1 0 c 0.4 0 1.1 0.1 1.7 0.8 C 19.8 7.5 20 8.6 20 8.7 c 0 0.1 0.2 1.3 0.2 2.6 V 12.6 z" stroke-linecap="round" />
</g>
<g transform="matrix(8.33 0 0 8.33 201.67 198.75)" id="Layer_1"  >
<polygon style="stroke: none; stroke-width: 1; stroke-dasharray: none; stroke-linecap: butt; stroke-dashoffset: 0; stroke-linejoin: miter; stroke-miterlimit: 4; fill: rgb(0,0,0); fill-rule: nonzero; opacity: 1;"  points="-1.3,1.45 1.3,-0.05 -1.3,-1.45 " />
</g>
</svg>